<svg xmlns="http://www.w3.org/2000/svg" xmlns:xlink="http://www.w3.org/1999/xlink" width="64" height="64" viewBox="0 0 64 64">
  <defs>
    <filter id="Ellipse_45" x="0" y="0" width="64" height="64" filterUnits="userSpaceOnUse">
      <feOffset dy="3" input="SourceAlpha"/>
      <feGaussianBlur stdDeviation="3" result="blur"/>
      <feFlood flood-opacity="0.161"/>
      <feComposite operator="in" in2="blur"/>
      <feComposite in="SourceGraphic"/>
    </filter>
  </defs>
  <g id="Group_38" data-name="Group 38" transform="translate(-79 -262)">
    <g transform="matrix(1, 0, 0, 1, 79, 262)" filter="url(#Ellipse_45)">
      <g id="Ellipse_45-2" data-name="Ellipse 45" transform="translate(9 6)" fill="#68e88e" stroke="#707070" stroke-width="0.2">
        <circle cx="23" cy="23" r="23" stroke="none"/>
        <circle cx="23" cy="23" r="22.9" fill="none"/>
      </g>
    </g>
    <g id="noun_Neutral_116790" transform="translate(129 211)" opacity="0.18">
      <g id="Group_32" data-name="Group 32" transform="translate(-33 65)">
        <path id="Path_676" data-name="Path 676" d="M14.977,5a9.977,9.977,0,1,0,9.977,9.977A9.988,9.988,0,0,0,14.977,5Zm0,18.165a8.188,8.188,0,1,1,8.188-8.188A8.2,8.2,0,0,1,14.977,23.165Z"/>
        <g id="Group_30" data-name="Group 30" transform="translate(10.362 10.69)">
          <g id="Group_28" data-name="Group 28" transform="translate(6.429)">
            <path id="Path_677" data-name="Path 677" d="M59.58,30.666a1.4,1.4,0,1,0,1.4,1.4A1.4,1.4,0,0,0,59.58,30.666Z" transform="translate(-58.18 -30.666)"/>
          </g>
          <g id="Group_29" data-name="Group 29">
            <path id="Path_678" data-name="Path 678" d="M30.584,30.666a1.4,1.4,0,1,0,1.4,1.4A1.4,1.4,0,0,0,30.584,30.666Z" transform="translate(-29.183 -30.666)"/>
          </g>
        </g>
        <g id="Group_31" data-name="Group 31" transform="translate(9.668 17.942)">
          <path id="Path_679" data-name="Path 679" d="M35.894,64.482H26.649a.556.556,0,1,1,0-1.109h9.244a.556.556,0,1,1,0,1.109Z" transform="translate(-26.053 -63.373)"/>
        </g>
      </g>
    </g>
  </g>
</svg>
