<svg xmlns="http://www.w3.org/2000/svg" xmlns:xlink="http://www.w3.org/1999/xlink" width="64" height="64" viewBox="0 0 64 64">
  <defs>
    <filter id="Ellipse_42" x="0" y="0" width="64" height="64" filterUnits="userSpaceOnUse">
      <feOffset dy="3" input="SourceAlpha"/>
      <feGaussianBlur stdDeviation="3" result="blur"/>
      <feFlood flood-opacity="0.161"/>
      <feComposite operator="in" in2="blur"/>
      <feComposite in="SourceGraphic"/>
    </filter>
  </defs>
  <g id="Group_37" data-name="Group 37" transform="translate(-218 -184)">
    <g transform="matrix(1, 0, 0, 1, 218, 184)" filter="url(#Ellipse_42)">
      <g id="Ellipse_42-2" data-name="Ellipse 42" transform="translate(9 6)" fill="#ff7596" stroke="#707070" stroke-width="0.2">
        <circle cx="23" cy="23" r="23" stroke="none"/>
        <circle cx="23" cy="23" r="22.9" fill="none"/>
      </g>
    </g>
    <g id="noun_in_love_394545" data-name="noun_in love_394545" transform="translate(219 192)" opacity="0.18">
      <g id="Group_27" data-name="Group 27" transform="translate(15 6.467)">
        <path id="Path_675" data-name="Path 675" d="M20.473,10.026c.143.07.27.126.378.17.108-.044.235-.1.379-.17a8.3,8.3,0,0,0,2.463-1.9c1.632-1.8.994-3.879-.7-4.106A2.237,2.237,0,0,0,22.7,4a2.041,2.041,0,0,0-1.843,1.382A2.041,2.041,0,0,0,19.009,4a2.2,2.2,0,0,0-.3.02c-1.7.227-2.333,2.3-.7,4.106a8.3,8.3,0,0,0,2.463,1.9m-9.546,9.014a2.235,2.235,0,0,0-.3-.02A2.041,2.041,0,0,0,8.788,20.4a2.041,2.041,0,0,0-1.843-1.382,2.239,2.239,0,0,0-.3.02c-1.7.227-2.333,2.3-.7,4.106a8.3,8.3,0,0,0,2.463,1.9c.143.07.27.126.379.17.108-.044.235-.1.378-.17a8.292,8.292,0,0,0,2.463-1.9c1.632-1.8.994-3.879-.7-4.106m7.548-1.761A3.16,3.16,0,0,1,14.1,17.3a.764.764,0,0,0-1.049,1.111,4.94,4.94,0,0,0,3.262,1.3,4.764,4.764,0,0,0,3.165-1.274.764.764,0,0,0-1-1.155m-1.4-3.874A.764.764,0,0,0,18,14.62a2.058,2.058,0,0,1,2.792-.059.764.764,0,0,0,1.061-1.1,3.668,3.668,0,0,0-4.779-.057m-2.7,1.371a.764.764,0,0,0,.531-1.314,3.668,3.668,0,0,0-4.779-.057.764.764,0,0,0,.926,1.216,2.058,2.058,0,0,1,2.792-.059.761.761,0,0,0,.531.214m9.274-5.608a9.31,9.31,0,0,1-1.2.957,8.291,8.291,0,0,1-9.8,12.833,5,5,0,0,1-.5.658c-.179.2-.357.374-.533.541A9.823,9.823,0,0,0,23.649,9.167m-16.7,9.151c-.089,0-.18.006-.271.014A9.83,9.83,0,0,1,16.049,5.567c.113,0,.226,0,.338.009a3.255,3.255,0,0,0,.189,1.538c-.174-.011-.35-.018-.527-.018A8.291,8.291,0,0,0,8.523,18.875a2.494,2.494,0,0,0-1.578-.557" fill-rule="evenodd"/>
      </g>
    </g>
  </g>
</svg>
