<svg xmlns="http://www.w3.org/2000/svg" xmlns:xlink="http://www.w3.org/1999/xlink" width="64" height="64" viewBox="0 0 64 64">
  <defs>
    <filter id="Ellipse_41" x="0" y="0" width="64" height="64" filterUnits="userSpaceOnUse">
      <feOffset dy="3" input="SourceAlpha"/>
      <feGaussianBlur stdDeviation="3" result="blur"/>
      <feFlood flood-opacity="0.161"/>
      <feComposite operator="in" in2="blur"/>
      <feComposite in="SourceGraphic"/>
    </filter>
  </defs>
  <g id="Group_36" data-name="Group 36" transform="translate(-149 -184)">
    <g transform="matrix(1, 0, 0, 1, 149, 184)" filter="url(#Ellipse_41)">
      <g id="Ellipse_41-2" data-name="Ellipse 41" transform="translate(9 6)" fill="#ff3a3a" stroke="#707070" stroke-width="0.2">
        <circle cx="23" cy="23" r="23" stroke="none"/>
        <circle cx="23" cy="23" r="22.9" fill="none"/>
      </g>
    </g>
    <g id="noun_Very_Unhappy_116794" data-name="noun_Very Unhappy_116794" transform="translate(166.116 197.884)" opacity="0.18">
      <g id="Group_26" data-name="Group 26" transform="translate(5 5)">
        <g id="Group_12" data-name="Group 12" transform="translate(5.064 11.843)">
          <path id="Path_671" data-name="Path 671" d="M37.042,61.142a.6.6,0,0,1-.413-.163,5.4,5.4,0,0,0-7.936-.025.6.6,0,0,1-.875-.825,7.332,7.332,0,0,1,4.7-2.139A6.833,6.833,0,0,1,37.455,60.1a.6.6,0,0,1-.413,1.038Z" transform="translate(-27.656 -57.988)"/>
        </g>
        <g id="Group_14" data-name="Group 14">
          <g id="Group_13" data-name="Group 13">
            <path id="Path_672" data-name="Path 672" d="M15.058,5A10.058,10.058,0,1,0,25.116,15.058,10.069,10.069,0,0,0,15.058,5Zm0,18.312a8.254,8.254,0,1,1,8.255-8.254A8.263,8.263,0,0,1,15.058,23.312Z" transform="translate(-5 -5)"/>
          </g>
        </g>
        <g id="Group_25" data-name="Group 25" transform="translate(4.972 4.142)">
          <g id="Group_17" data-name="Group 17" transform="translate(6.914 2.196)">
            <g id="Group_16" data-name="Group 16">
              <g id="Group_15" data-name="Group 15">
                <path id="Path_673" data-name="Path 673" d="M59.592,33.357A1.412,1.412,0,1,0,61,34.769,1.414,1.414,0,0,0,59.592,33.357Z" transform="translate(-58.18 -33.357)"/>
              </g>
            </g>
          </g>
          <g id="Group_20" data-name="Group 20" transform="translate(0.433 2.196)">
            <g id="Group_19" data-name="Group 19">
              <g id="Group_18" data-name="Group 18">
                <path id="Path_674" data-name="Path 674" d="M30.6,33.357a1.412,1.412,0,1,0,1.412,1.412A1.414,1.414,0,0,0,30.6,33.357Z" transform="translate(-29.184 -33.357)"/>
              </g>
            </g>
          </g>
          <g id="Group_22" data-name="Group 22" transform="translate(0 0.001)">
            <g id="Group_21" data-name="Group 21" transform="translate(0 0)">
              <rect id="Rectangle_1452" data-name="Rectangle 1452" width="3.607" height="0.902" transform="translate(3.368 2.134) rotate(-159.017)"/>
            </g>
          </g>
          <g id="Group_24" data-name="Group 24" transform="translate(6.48 0)">
            <g id="Group_23" data-name="Group 23" transform="translate(0)">
              <rect id="Rectangle_1453" data-name="Rectangle 1453" width="0.902" height="3.607" transform="translate(0.323 2.134) rotate(-110.996)"/>
            </g>
          </g>
        </g>
      </g>
    </g>
  </g>
</svg>
