<svg xmlns="http://www.w3.org/2000/svg" xmlns:xlink="http://www.w3.org/1999/xlink" width="64" height="64" viewBox="0 0 64 64">
  <defs>
    <filter id="Ellipse_46" x="0" y="0" width="64" height="64" filterUnits="userSpaceOnUse">
      <feOffset dy="3" input="SourceAlpha"/>
      <feGaussianBlur stdDeviation="3" result="blur"/>
      <feFlood flood-opacity="0.161"/>
      <feComposite operator="in" in2="blur"/>
      <feComposite in="SourceGraphic"/>
    </filter>
  </defs>
  <g id="Group_39" data-name="Group 39" transform="translate(-148 -262)">
    <g transform="matrix(1, 0, 0, 1, 148, 262)" filter="url(#Ellipse_46)">
      <g id="Ellipse_46-2" data-name="Ellipse 46" transform="translate(9 6)" fill="#dd78fb" stroke="#707070" stroke-width="0.2">
        <circle cx="23" cy="23" r="23" stroke="none"/>
        <circle cx="23" cy="23" r="22.9" fill="none"/>
      </g>
    </g>
    <g id="noun_confused_1735527" transform="translate(160 271)" opacity="0.18">
      <g id="Group_34" data-name="Group 34" transform="translate(10 10)">
        <path id="Path_680" data-name="Path 680" d="M42.979,61.221a7.154,7.154,0,0,0-5.843,1.015.561.561,0,0,0-.11.768.573.573,0,0,0,.439.219.479.479,0,0,0,.329-.11,6.091,6.091,0,0,1,4.91-.823.526.526,0,0,0,.658-.411A.494.494,0,0,0,42.979,61.221Z" transform="translate(-29.536 -47.01)"/>
        <circle id="Ellipse_57" data-name="Ellipse 57" cx="1.646" cy="1.646" r="1.646" transform="translate(4.389 7.873)"/>
        <path id="Path_681" data-name="Path 681" d="M25.6,30.066l2.743-.274a.551.551,0,0,0-.11-1.1l-2.743.274a.553.553,0,0,0-.494.6.561.561,0,0,0,.549.494Z" transform="translate(-20.879 -23.564)"/>
        <circle id="Ellipse_58" data-name="Ellipse 58" cx="1.646" cy="1.646" r="1.646" transform="translate(13.168 7.873)"/>
        <path id="Path_682" data-name="Path 682" d="M60.341,28.968,57.6,28.694a.551.551,0,0,0-.11,1.1l2.743.274h.055a.561.561,0,0,0,.549-.494A.553.553,0,0,0,60.341,28.968Z" transform="translate(-44.1 -23.564)"/>
        <g id="Group_33" data-name="Group 33">
          <path id="Path_683" data-name="Path 683" d="M20.424,11.1A9.327,9.327,0,1,1,11.1,20.424,9.355,9.355,0,0,1,20.424,11.1m0-1.1A10.424,10.424,0,1,0,30.849,20.424,10.42,10.42,0,0,0,20.424,10Z" transform="translate(-10 -10)"/>
        </g>
      </g>
    </g>
  </g>
</svg>
