<svg xmlns="http://www.w3.org/2000/svg" xmlns:xlink="http://www.w3.org/1999/xlink" width="64" height="64" viewBox="0 0 64 64">
  <defs>
    <filter id="Path_664" x="0" y="0" width="64" height="64" filterUnits="userSpaceOnUse">
      <feOffset dy="3" input="SourceAlpha"/>
      <feGaussianBlur stdDeviation="3" result="blur"/>
      <feFlood flood-opacity="0.161"/>
      <feComposite operator="in" in2="blur"/>
      <feComposite in="SourceGraphic"/>
    </filter>
  </defs>
  <g id="Group_35" data-name="Group 35" transform="translate(-80 -184)">
    <g transform="matrix(1, 0, 0, 1, 80, 184)" filter="url(#Path_664)">
      <g id="Path_664-2" data-name="Path 664" transform="translate(9 6)" fill="#ffe26e">
        <path d="M 23 45.90000152587891 C 19.90847969055176 45.90000152587891 16.90947914123535 45.29454040527344 14.08631992340088 44.10044860839844 C 11.35941028594971 42.94705963134766 8.910380363464355 41.29587173461914 6.807250022888184 39.1927490234375 C 4.704130172729492 37.08961868286133 3.052939891815186 34.64059066772461 1.899549961090088 31.9136791229248 C 0.7054600119590759 29.09052085876465 0.1000000014901161 26.09152030944824 0.1000000014901161 23 C 0.1000000014901161 19.90847969055176 0.7054600119590759 16.90947914123535 1.899549961090088 14.08631992340088 C 3.052939891815186 11.35941028594971 4.704130172729492 8.910380363464355 6.807250022888184 6.807250022888184 C 8.910380363464355 4.704130172729492 11.35941028594971 3.052939891815186 14.08631992340088 1.899549961090088 C 16.90947914123535 0.7054600119590759 19.90847969055176 0.1000000014901161 23 0.1000000014901161 C 26.09152030944824 0.1000000014901161 29.09052085876465 0.7054600119590759 31.9136791229248 1.899549961090088 C 34.64059066772461 3.052939891815186 37.08961868286133 4.704130172729492 39.1927490234375 6.807250022888184 C 41.29587173461914 8.910380363464355 42.94705963134766 11.35941028594971 44.10044860839844 14.08631992340088 C 45.29454040527344 16.90947914123535 45.90000152587891 19.90847969055176 45.90000152587891 23 C 45.90000152587891 26.09152030944824 45.29454040527344 29.09052085876465 44.10044860839844 31.9136791229248 C 42.94705963134766 34.64059066772461 41.29587173461914 37.08961868286133 39.1927490234375 39.1927490234375 C 37.08961868286133 41.29587173461914 34.64059066772461 42.94705963134766 31.9136791229248 44.10044860839844 C 29.09052085876465 45.29454040527344 26.09152030944824 45.90000152587891 23 45.90000152587891 Z" stroke="none"/>
        <path d="M 23 0.2000007629394531 C 19.92193031311035 0.2000007629394531 16.9360408782959 0.8027992248535156 14.12527084350586 1.991649627685547 C 11.4102897644043 3.139999389648438 8.971939086914063 4.783988952636719 6.877971649169922 6.877971649169922 C 4.783988952636719 8.971939086914063 3.139999389648438 11.4102897644043 1.991649627685547 14.12527084350586 C 0.8027992248535156 16.9360408782959 0.2000007629394531 19.92193031311035 0.2000007629394531 23 C 0.2000007629394531 26.07806968688965 0.8027992248535156 29.0639591217041 1.991649627685547 31.87472915649414 C 3.139999389648438 34.5897102355957 4.783988952636719 37.02806091308594 6.877971649169922 39.12202835083008 C 8.971939086914063 41.21601104736328 11.4102897644043 42.86000061035156 14.12527084350586 44.00835037231445 C 16.9360408782959 45.19720077514648 19.92193031311035 45.79999923706055 23 45.79999923706055 C 26.07806968688965 45.79999923706055 29.0639591217041 45.19720077514648 31.87472915649414 44.00835037231445 C 34.5897102355957 42.86000061035156 37.02806091308594 41.21601104736328 39.12202835083008 39.12202835083008 C 41.21601104736328 37.02806091308594 42.86000061035156 34.5897102355957 44.00835037231445 31.87472915649414 C 45.19720077514648 29.0639591217041 45.79999923706055 26.07806968688965 45.79999923706055 23 C 45.79999923706055 19.92193031311035 45.19720077514648 16.9360408782959 44.00835037231445 14.12527084350586 C 42.86000061035156 11.4102897644043 41.21601104736328 8.971939086914063 39.12202835083008 6.877971649169922 C 37.02806091308594 4.783988952636719 34.5897102355957 3.139999389648438 31.87472915649414 1.991649627685547 C 29.0639591217041 0.8027992248535156 26.07806968688965 0.2000007629394531 23 0.2000007629394531 M 23 0 C 35.70254898071289 0 46 10.29745101928711 46 23 C 46 35.70254898071289 35.70254898071289 46 23 46 C 10.29745101928711 46 0 35.70254898071289 0 23 C 0 10.29745101928711 10.29745101928711 0 23 0 Z" stroke="none" fill="#707070"/>
      </g>
    </g>
    <g id="baseline-mood-24px" transform="translate(100 201)" opacity="0.18">
      <path id="Path_665" data-name="Path 665" d="M0,0H24V24H0Z" fill="none"/>
      <path id="Path_666" data-name="Path 666" d="M11.99,2A10,10,0,1,0,22,12,10,10,0,0,0,11.99,2ZM12,20a8,8,0,1,1,8-8A8,8,0,0,1,12,20Zm3.5-9A1.5,1.5,0,1,0,14,9.5,1.5,1.5,0,0,0,15.5,11Zm-7,0A1.5,1.5,0,1,0,7,9.5,1.5,1.5,0,0,0,8.5,11ZM12,17.5A5.5,5.5,0,0,0,17.11,14H6.89A5.5,5.5,0,0,0,12,17.5Z"/>
    </g>
  </g>
</svg>
